<?xml version="1.0" encoding="UTF-8"?>
<svg id="Layer_2" data-name="Layer 2" xmlns="http://www.w3.org/2000/svg" viewBox="0 0 115.81 98.33">
  <defs>
    <style>
      .cls-1 {
        fill: #318cdd;
      }

      .cls-2 {
        fill: #054386;
      }

      .cls-3 {
        fill: #bf162c;
      }

      .cls-4 {
        fill: #f49a9a;
      }

      .cls-5 {
        fill: #e68011;
      }
    </style>
  </defs>
  <g id="Layer_2-2" data-name="Layer 2">
    <g>
      <rect class="cls-5" x="56.35" y="0" width="3.39" height="15.65" rx="1.7" ry="1.7"/>
      <rect class="cls-5" x="91.05" y="14.4" width="3.39" height="15.65" rx="1.7" ry="1.7" transform="translate(40.03 -57.26) rotate(42.97)"/>
      <rect class="cls-5" x="21.62" y="14.83" width="3.39" height="15.65" rx="1.7" ry="1.7" transform="translate(-9.2 23.12) rotate(-45)"/>
      <rect class="cls-5" x="6.13" y="55.53" width="3.39" height="15.65" rx="1.7" ry="1.7" transform="translate(71.18 55.53) rotate(90)"/>
      <path class="cls-5" d="M41.04,27.48c.06.12.15.15.27.09l1.99-.96c.08-.04.16-.05.23-.02.07.03.13.08.17.16l.7,1.45c.04.08.05.16.02.23-.03.07-.08.13-.16.17l-4.17,2.01c-.08.04-.16.05-.23.02-.07-.02-.13-.08-.17-.16l-2.8-5.8c-.04-.08-.05-.16-.02-.23.03-.07.08-.13.16-.17l4.17-2.01c.08-.04.16-.05.23-.02.07.03.13.08.17.16l.7,1.45c.04.08.05.16.02.23-.03.07-.08.13-.16.17l-1.99.96c-.12.06-.15.15-.09.27l.13.27c.06.12.15.15.27.09l1.63-.79c.08-.04.16-.06.21-.07.06,0,.11.03.15.12l.35.73c.04.08.04.15,0,.19-.04.04-.1.08-.19.12l-1.63.79c-.12.06-.15.15-.09.27l.13.27Z"/>
      <path class="cls-5" d="M51.14,26.16c-.12.34-.35.56-.7.65-.51.14-.98.16-1.4.06-.42-.1-.79-.29-1.11-.56-.32-.27-.58-.6-.78-1-.2-.4-.34-.82-.42-1.27-.08-.45-.08-.91-.02-1.37.06-.47.2-.9.42-1.3.22-.4.51-.75.89-1.04.38-.3.85-.51,1.41-.62.5-.1.96-.14,1.37-.11.41.03.78.13,1.09.28.08.04.16.08.22.13.06.05.08.13.04.23l-.47,1.55c-.02.06-.04.12-.07.18-.03.06-.08.1-.15.11-.05,0-.1,0-.17-.03-.12-.06-.23-.11-.33-.15-.1-.04-.2-.08-.31-.11-.11-.03-.22-.03-.34-.03-.12,0-.27.04-.43.1-.22.07-.39.2-.51.39-.12.19-.19.39-.21.62-.02.23,0,.46.05.69.06.24.14.44.26.62s.26.31.43.4c.17.09.35.1.55.04.14-.04.23-.11.27-.21.04-.09.05-.19.03-.29l-.15-.73c-.02-.09,0-.17.03-.23.04-.06.11-.1.2-.12l1.87-.39c.09-.02.17,0,.23.03.06.04.1.11.12.2l.61,2.91c.02.09,0,.17-.03.23-.04.06-.11.1-.2.12l-1.87.39c-.1.02-.17,0-.2-.07-.04-.07-.07-.17-.11-.31-.01-.05-.03-.09-.05-.1-.02-.01-.05.01-.07.08Z"/>
      <path class="cls-5" d="M57.59,19.24c0-.09.02-.17.07-.22.05-.05.13-.08.22-.09l1.91-.05c.09,0,.17.02.22.07.06.05.08.13.09.22l.1,3.81c.01.5-.06.94-.23,1.33-.17.38-.39.7-.68.96-.29.26-.61.46-.98.59-.37.13-.75.21-1.14.22-.39.01-.77-.04-1.15-.16-.38-.11-.72-.29-1.02-.54-.3-.24-.55-.55-.73-.92-.19-.37-.29-.81-.3-1.31l-.1-3.81c0-.09.02-.17.07-.22.05-.05.13-.08.22-.09l1.91-.05c.09,0,.17.02.22.07.06.05.08.13.09.22l.1,3.81c0,.26.08.46.21.59.13.13.27.19.43.19.15,0,.29-.07.41-.21.12-.13.17-.33.17-.6l-.1-3.81Z"/>
      <path class="cls-5" d="M63.63,23.95c-.02.13.04.21.17.23l2.19.31c.09.01.16.05.21.11.05.06.06.14.05.23l-.23,1.59c-.01.09-.05.16-.11.21-.06.05-.14.06-.23.05l-4.58-.65c-.09-.01-.16-.05-.21-.11-.05-.06-.06-.14-.05-.23l.91-6.38c.01-.09.05-.16.11-.21.06-.05.14-.06.23-.05l4.58.65c.09.01.16.05.21.11.05.06.06.14.05.23l-.23,1.59c-.01.09-.05.16-.11.21-.06.05-.14.06-.23.05l-2.19-.31c-.13-.02-.21.04-.23.17l-.04.3c-.02.13.04.21.17.23l1.79.26c.09.01.16.03.21.06.05.03.07.09.06.18l-.11.8c-.01.09-.05.15-.1.16-.06.01-.13.01-.22,0l-1.79-.26c-.13-.02-.21.04-.23.17l-.04.3Z"/>
      <path class="cls-5" d="M66.65,26.04c-.05-.08-.08-.15-.11-.23s0-.15.07-.22l1.21-1.07s.06-.05.1-.08c.04-.03.08-.04.12-.06.04-.01.08-.01.13,0,.04.01.08.05.12.1.15.22.35.42.59.59.24.17.48.3.71.38.23.09.43.13.6.12.17,0,.27-.08.29-.2.02-.1-.05-.21-.19-.32-.15-.11-.33-.24-.54-.38-.22-.14-.45-.29-.69-.46-.25-.17-.47-.35-.66-.55-.2-.2-.35-.42-.45-.66-.11-.24-.12-.5-.05-.78.11-.44.32-.78.62-1.02.3-.24.65-.4,1.06-.47.4-.08.83-.08,1.29-.01.46.07.9.19,1.32.36.42.17.81.38,1.15.64.34.26.6.54.77.85.04.08.07.15.1.22s0,.15-.07.22l-1.21,1.07c-.06.05-.13.1-.22.14-.09.04-.17,0-.26-.11-.06-.08-.16-.18-.28-.27-.12-.1-.26-.2-.41-.29-.15-.1-.3-.18-.47-.26-.16-.08-.31-.14-.46-.19-.14-.05-.27-.07-.37-.08-.11,0-.18.03-.22.09-.07.1-.04.22.08.33.12.12.3.24.52.38.22.14.46.29.73.45.26.16.5.35.72.56.22.21.38.45.5.71.12.27.13.56.05.89-.12.48-.33.84-.64,1.1-.31.26-.66.43-1.06.5-.4.08-.83.08-1.29,0-.46-.08-.9-.21-1.32-.4-.42-.19-.8-.42-1.14-.7-.34-.28-.59-.57-.76-.9Z"/>
      <path class="cls-5" d="M81.08,25.3c.08.04.14.1.16.17.02.07.01.15-.03.23l-.75,1.42c-.04.08-.1.14-.17.16-.07.02-.15.01-.23-.03l-1.25-.66c-.12-.06-.21-.03-.27.08l-2.02,3.83c-.04.08-.1.14-.17.16-.07.02-.15.01-.23-.03l-1.69-.89c-.08-.04-.14-.1-.16-.17-.02-.07-.01-.15.03-.23l2.02-3.83c.06-.12.03-.21-.08-.27l-1.25-.66c-.08-.04-.14-.1-.16-.17-.02-.07-.01-.15.03-.23l.75-1.42c.04-.08.1-.14.17-.16.07-.02.15-.01.23.03l5.08,2.67Z"/>
      <path class="cls-1" d="M54.07,70.63c.17-.06.35-.11.52-.16-.17.05-.35.1-.52.16Z"/>
      <path class="cls-1" d="M57.63,69.93c.16,0,.32-.02.48-.02,0,.01-.02.02-.03.02h-.45Z"/>
      <path class="cls-1" d="M62.41,70.79c.13.07.26.14.39.21-.13-.07-.26-.14-.39-.21Z"/>
      <path class="cls-4" d="M93.67,65.25c0,.06,0,.13,0,.19v-.2s0,0,0,.01Z"/>
      <path class="cls-2" d="M28.57,83.52c3.3-.61,6.36-1.07,9.33-1.35,7.83-.73,14.96-.17,23.84,1.88,5.47,1.26,11.91,2.54,19.24,1.7,2.02-.23,4.02-.62,5.99-1.16.06-.02.11-.03.17-.05,1.92-.53,3.82-1.21,5.68-2.03,4.39-1.93,8.74-4.72,12.93-8.28l-.06-.09c-3.69,2.21-8.61,3.59-14.96,4.17h-.12c-1.96.19-4.06.29-6.3.31-8.05.09-17.96-.81-30.29-2.75-11.37-1.79-21.48.24-28.32,2.45-.03.01-.07.02-.1.03-.41.13-.81.27-1.19.4-8.42,2.92-14.38,6.84-16.92,9.3l-.14.13.19-.04c1.12-.26,2.2-.51,3.26-.76,6.85-1.59,12.55-2.92,17.67-3.87.04,0,.08-.02.12-.02Z"/>
      <path class="cls-2" d="M81.64,90.6c-.06,0-.11,0-.17,0h0c-.13,0-.26,0-.39,0-6.46.07-14.42-.65-24.32-2.21-8.21-1.29-15.96-.16-22.34,1.85h0s-.08.02-.12.04c-7.2,2.28-12.61,5.67-14.92,7.9l-.14.13.19-.04c.89-.21,1.77-.41,2.61-.61,6.89-1.6,12.34-2.87,17.23-3.63,0,0,0,0,.01,0,0,0,0,0,0,0,.05,0,.1-.02.15-.02,1.5-.23,2.95-.42,4.38-.55,6.29-.58,12.01-.13,19.14,1.51,2.75.64,5.81,1.28,9.16,1.5.08,0,.15.01.23.01,0,0,0,0,0,0,0,0,0,0,0,0,1.92.12,3.94.09,6.05-.15,7.03-.81,13.54-3.83,19.89-9.25l-.06-.09c-3.79,2.28-9.23,3.45-16.6,3.59Z"/>
      <path class="cls-5" d="M23.11,57.61c.16-.94.35-1.86.59-2.78-.23.92-.43,1.84-.59,2.78-.49,2.95-.63,5.88-.43,8.74-.2-2.86-.07-5.79.43-8.74ZM23.09,69.7c-.02-.11-.04-.21-.05-.32.02.11.03.21.05.32ZM23.01,69.23c-.02-.12-.04-.23-.05-.35.02.12.03.23.05.35ZM22.94,68.75c-.02-.12-.03-.25-.05-.37.02.12.03.25.05.37ZM22.88,68.27c-.02-.13-.03-.26-.05-.39.02.13.03.26.05.39ZM22.82,67.79c-.02-.14-.03-.28-.04-.42.01.14.03.28.04.42ZM22.77,67.3c-.01-.14-.03-.29-.04-.43.01.14.03.29.04.43ZM22.72,66.81c-.01-.15-.02-.3-.04-.45.01.15.02.3.04.45ZM23.88,73.31s.02.06.02.09c0-.03-.02-.06-.02-.09ZM23.12,69.88c.02.1.03.2.05.29-.02-.1-.04-.2-.05-.29ZM23.2,70.37c.02.09.03.18.05.27-.02-.09-.04-.18-.05-.27ZM23.3,70.87c.02.08.03.16.05.24-.02-.08-.03-.16-.05-.24ZM23.4,71.36c.02.07.03.14.05.21-.02-.07-.03-.14-.05-.21ZM23.51,71.85c.01.06.03.12.04.18-.01-.06-.03-.12-.04-.18ZM23.63,72.34c.01.05.03.1.04.15-.01-.05-.03-.1-.04-.15ZM23.75,72.82s.02.08.03.12c-.01-.04-.02-.08-.03-.12ZM30.88,40.96c6.59-7.83,15.88-12.34,25.9-12.71.26,0,.51-.02.77-.02-.26,0-.51.01-.77.02-10.02.38-19.31,4.89-25.9,12.71ZM84.81,40.25c-1.88-2.13-3.99-4-6.27-5.59,2.29,1.6,4.4,3.47,6.28,5.59,1.06,1.2,2.03,2.46,2.91,3.77-.88-1.31-1.85-2.57-2.91-3.77ZM93.67,65.24v.2c0-.06,0-.13,0-.19,0,0,0,0,0-.01Z"/>
      <path class="cls-5" d="M92.49,73.03s-.02,0-.02,0c0,0,0,0-.03,0-.02,0-.04,0-.06.01-.09.02-.18.04-.27.05-1.12.22-2.22.39-3.32.53-.17.02-.34.04-.51.06-.04,0-.09.01-.13.02-.18.02-.36.04-.54.06-.26.03-.53.05-.79.07-.31.03-.63.05-.94.07-.65.04-1.31.08-1.95.1-.19,0-.38.01-.57.02-2.04.04-4.02-.02-5.92-.16-.27-.02-.53-.04-.8-.06-.17-.01-.34-.03-.51-.04-.13-.01-.26-.02-.39-.04-.6-.06-1.18-.12-1.76-.19-.13-.02-.26-.03-.39-.05-.25-.03-.49-.06-.73-.09-.16-.02-.32-.04-.48-.06-.81-.11-1.6-.23-2.36-.36-.15-.02-.3-.05-.45-.08-.04,0-.07-.01-.11-.02-.16-.03-.33-.06-.49-.08-.18-.03-.35-.06-.52-.09-.09-.02-.18-.03-.27-.05-.17-.03-.34-.06-.51-.09-1.37-.26-2.66-.52-3.84-.76,0,0-.01,0-.02,0-.04-.04-.09-.08-.13-.12-.02-.01-.03-.03-.05-.04-.03-.03-.06-.05-.1-.08-.03-.02-.06-.04-.08-.07-.04-.03-.08-.07-.13-.1-.05-.04-.11-.08-.17-.12,0,0,0,0-.01,0-.06-.04-.11-.07-.17-.11,0,0,0,0,0,0-.06-.04-.12-.08-.19-.11-.13-.07-.26-.14-.39-.21-.07-.03-.13-.07-.2-.1-.07-.03-.13-.06-.2-.09,0,0,0,0,0,0-.07-.03-.14-.06-.21-.09-.05-.02-.11-.04-.16-.06-.03,0-.05-.02-.08-.03-.07-.02-.14-.05-.21-.07-.06-.02-.12-.04-.18-.06-.16-.05-.32-.09-.48-.13-.02,0-.03-.02-.03-.04v-12.65s0-.02,0-.03c0,0,12.84-11.2,12.84-11.2v-2.19s-.02-.04-.04-.04h-5.56s.05-.06.05-.06l1.65-1.45c.21-.19.49-.29.77-.29h4.67s.04-.02.04-.04v-1.65s-.02-.04-.04-.04h-5.59c-.11,0-.21.04-.3.11l-3.82,3.35-.05.04-20.2-.03s-.04.02-.04.04v2.15h0s.03.03.03.03l12.98,11.42s.01.02.01.03l.03,12.24s0,.01,0,.02c0,.01-.02.02-.03.02h-.45c-.35.02-.71.06-1.07.11-.1.01-.2.03-.31.05-.11.02-.21.04-.32.06-.12.02-.24.05-.36.07-.07.02-.15.03-.22.05-.03,0-.07.02-.11.03-.13.03-.27.07-.4.1-.09.02-.17.05-.26.07-.17.05-.35.1-.52.16,0,0,0,0-.01,0-.17.06-.34.12-.51.18,0,0-.02,0-.02,0-.09-.03-.18-.06-.27-.09-.05-.02-.1-.03-.16-.05-.29-.1-.6-.19-.92-.28-.16-.05-.32-.09-.49-.13-.43-.11-.89-.22-1.37-.32-.13-.03-.26-.05-.4-.08-.85-.16-1.76-.29-2.75-.38-.14-.01-.28-.03-.43-.04-.07,0-.14-.01-.21-.02-.18-.01-.36-.02-.54-.03-3.69-.2-8.3.16-13.9,1.64-.69.18-1.38.38-2.06.59-.28.09-.57.18-.85.27-1.08.35-2.15.72-3.19,1.13-.27.1-.53.21-.79.31-.21.09-.43.17-.64.26-.15.06-.29.12-.43.18-.01,0-.03.01-.04.02-.02,0-.04,0-.05-.02,0,.01,0,.02.01.04.01.04.02.07.03.11-.03.01-.07.03-.1.04l-.03-.11c-.95-3.23-1.43-6.61-1.43-10.07,0-9.53,3.71-18.48,10.45-25.22,6.74-6.73,15.69-10.44,25.22-10.44s18.48,3.71,25.22,10.44c1.66,1.66,3.16,3.48,4.46,5.43s2.39,3.99,3.28,6.13,1.56,4.38,2.02,6.66c.38,2.61.72,6.1.54,8.48-.15,2.63-.56,5.21-1.18,7.77Z"/>
      <rect class="cls-5" x="106.29" y="55.29" width="3.39" height="15.65" rx="1.7" ry="1.7" transform="translate(171.1 -44.87) rotate(90)"/>
      <path class="cls-3" d="M70.13,46.26l.06-.05h-4.77l-.04.03h0l-5.81,5.1s-.04.01-.05,0l-1.06-1.21,4.25-3.72s0-.06-.02-.06h-.02s.12,0,.12,0l.03-.03h-.12l.09-.08.03-.03h-14.37s.02,0,.02,0l.12.11h-.02s-.05.04-.02.06l10.72,9.43s.03.01.05,0l10.75-9.38s0-.06-.02-.06h.1s.06-.05.06-.05h-.12l.07-.06Z"/>
      <polygon class="cls-4" points="45.06 46.29 45.07 46.29 45.06 46.28 45.06 46.29"/>
      <path class="cls-5" d="M15.2,53.47c.01-.09.05-.16.11-.21.06-.05.14-.06.23-.05l1.59.24c.09.01.16.05.21.11.05.06.06.14.05.23l-.21,1.39c-.02.13.04.21.17.23l4.28.63c.09.01.16.05.21.11.05.06.06.14.05.23l-.28,1.89c-.01.09-.05.16-.11.21-.06.05-.14.06-.23.05l-4.28-.63c-.13-.02-.21.04-.23.17l-.21,1.39c-.01.09-.05.16-.11.21-.06.05-.14.06-.23.05l-1.59-.24c-.09-.01-.16-.05-.21-.11-.05-.06-.06-.14-.05-.23l.84-5.68Z"/>
      <path class="cls-5" d="M22.57,52.19c.07.05.13.12.16.21.03.09.03.18,0,.27l-.62,1.91c-.03.09-.08.14-.14.16-.06.01-.13,0-.21-.06l-5.56-3.74c-.07-.05-.13-.12-.16-.21-.03-.09-.03-.18,0-.27l.77-2.39c.03-.09.08-.16.16-.21.08-.05.16-.08.25-.08l6.7.23c.09,0,.16.03.2.08.04.05.05.12.02.21l-.62,1.91c-.03.09-.08.16-.16.21-.08.05-.16.08-.25.08l-.68-.03c-.06,0-.12.01-.16.05-.05.04-.08.09-.1.14l-.28.86c-.02.06-.02.12,0,.17.02.06.05.1.1.13l.57.37ZM20.92,50.6c.04-.12,0-.19-.14-.19l-.72-.03c-.06,0-.1,0-.1.03,0,.03.01.05.07.09l.6.4c.11.07.19.05.23-.08l.07-.21Z"/>
      <path class="cls-5" d="M20.12,41.54c-.08-.04-.13-.1-.16-.18-.02-.07-.01-.15.03-.23l.91-1.68c.04-.08.1-.13.18-.16.07-.02.15-.01.23.03l5.67,3.07c.08.04.13.1.16.18.02.07.01.15-.03.23l-.86,1.59c-.04.08-.11.14-.19.16-.08.03-.17.04-.26.05h-2.3c-.07,0-.12,0-.12.02,0,.02.02.05.09.09l1.75.95c.08.04.13.1.16.18.02.07.01.15-.03.23l-.91,1.68c-.04.08-.1.13-.18.16-.07.02-.15.01-.23-.03l-5.67-3.07c-.08-.04-.13-.1-.16-.18-.02-.07-.01-.15.03-.23l.86-1.59c.04-.08.11-.14.19-.16.08-.03.17-.04.26-.05h2.3c.08,0,.12,0,.12-.02,0-.02-.02-.05-.09-.09l-1.75-.95Z"/>
      <path class="cls-5" d="M28.88,39.97c.07.06.11.13.12.2,0,.08-.02.15-.08.22l-1.2,1.49c-.06.07-.13.11-.2.12-.08,0-.15-.02-.22-.08l-5.01-4.05c-.07-.06-.11-.13-.12-.2,0-.08.02-.15.08-.22l1.2-1.49c.06-.07.13-.11.2-.12.08,0,.15.02.22.08l1.57,1.26c.1.08.2.07.28-.03l.51-.63c.08-.1.07-.2-.03-.28l-1.57-1.26c-.07-.06-.11-.13-.12-.2,0-.08.02-.15.08-.22l1.2-1.49c.06-.07.13-.11.2-.12.08,0,.15.02.22.08l5.01,4.05c.07.06.11.13.12.2,0,.08-.02.15-.08.22l-1.2,1.49c-.06.07-.13.11-.2.12-.08,0-.15-.02-.22-.08l-1.57-1.26c-.1-.08-.2-.07-.28.03l-.51.63c-.08.1-.07.2.03.28l1.57,1.26Z"/>
      <path class="cls-5" d="M34.93,33.83c.04.08.05.16.02.26-.03.09-.08.17-.15.23l-1.98,1.55c-.07.06-.16.09-.25.09-.1,0-.18-.02-.25-.08l-5.19-4.12c-.07-.06-.11-.12-.12-.18-.01-.06.02-.12.09-.18l1.57-1.23c.07-.06.16-.09.26-.09.1,0,.18.02.24.08l2.17,1.88c.11.09.14.06.08-.06l-1.23-2.62c-.04-.08-.04-.17-.02-.26.03-.09.08-.17.15-.23l1.58-1.24c.07-.06.16-.09.25-.09.1,0,.18.02.25.08l2.25,1.82c.11.09.14.06.08-.06l-1.31-2.55c-.04-.08-.05-.16-.02-.26.03-.09.08-.17.15-.23l1.58-1.24c.07-.06.14-.07.2-.05.06.03.11.08.15.16l2.76,6.02c.04.08.04.17.02.26-.03.09-.08.17-.15.23l-1.98,1.55c-.07.06-.16.09-.26.09-.1,0-.18-.02-.24-.08l-1.63-1.43s-.04-.03-.05-.02c-.01,0,0,.03,0,.06l.99,1.93Z"/>
      <path class="cls-5" d="M82.63,34.91c-.06.07-.13.11-.21.11-.08,0-.15-.03-.22-.09l-1.42-1.29c-.07-.06-.11-.13-.11-.21,0-.08.03-.15.09-.22l4.33-4.77c.06-.07.13-.11.21-.11.08,0,.15.03.22.09l1.42,1.29c.07.06.11.13.11.21,0,.08-.03.15-.09.22l-1.35,1.49c-.09.1-.09.19.01.28l.6.54c.1.09.19.09.28-.01l1.35-1.49c.06-.07.13-.11.21-.11.08,0,.15.03.22.09l1.42,1.29c.07.06.11.13.11.21,0,.08-.03.15-.09.22l-4.33,4.77c-.06.07-.13.11-.21.11-.08,0-.15-.03-.22-.09l-1.42-1.29c-.07-.06-.11-.13-.11-.21,0-.08.03-.15.09-.22l1.35-1.49c.09-.1.09-.19-.01-.28l-.6-.54c-.1-.09-.19-.09-.28.01l-1.35,1.49Z"/>
      <path class="cls-5" d="M87.46,40.74c-.36-.47-.58-.95-.68-1.43-.1-.48-.1-.95,0-1.39.1-.44.28-.86.54-1.24.26-.38.58-.71.94-.99.37-.28.77-.49,1.21-.63.44-.15.89-.21,1.34-.18.45.03.9.16,1.34.39.44.23.83.58,1.19,1.05.36.47.58.95.68,1.43.1.48.1.95,0,1.39-.1.44-.28.86-.54,1.24-.26.38-.58.71-.94.99-.37.28-.77.49-1.21.63-.44.15-.89.21-1.34.18-.45-.03-.9-.16-1.34-.39-.44-.23-.83-.58-1.19-1.05ZM89.23,39.4c.14.18.31.29.52.33.21.04.42.02.64-.05.22-.07.43-.18.63-.33.2-.15.37-.32.49-.52.13-.19.2-.39.23-.6.02-.21-.03-.41-.17-.59-.14-.18-.31-.29-.52-.33-.21-.04-.42-.02-.64.05-.22.07-.43.18-.63.33-.2.15-.37.32-.49.52-.13.19-.2.39-.23.6-.02.21.03.41.17.59Z"/>
      <path class="cls-5" d="M97.47,44.08c.08-.04.16-.05.23-.03.07.02.13.08.17.16l.85,1.72c.04.08.05.16.03.23-.02.07-.08.13-.16.17l-3.42,1.69c-.45.22-.89.34-1.3.34-.42,0-.8-.07-1.16-.22s-.67-.37-.95-.64c-.28-.28-.5-.59-.67-.94-.17-.35-.29-.72-.34-1.11-.05-.39-.03-.78.06-1.15.1-.38.27-.73.53-1.05.26-.33.61-.6,1.06-.82l3.42-1.69c.08-.04.16-.05.23-.03.07.02.13.08.17.16l.85,1.72c.04.08.05.16.03.23-.02.07-.08.13-.16.17l-3.42,1.69c-.23.12-.38.26-.45.43-.06.17-.06.33,0,.47.07.14.19.23.36.28.17.05.38.02.62-.1l3.42-1.69Z"/>
      <path class="cls-5" d="M93.4,49.43c.04-.08.08-.15.13-.22.04-.07.12-.09.22-.06l1.56.41s.08.02.12.04c.04.02.08.04.11.07.03.03.06.06.07.11.01.04,0,.09-.02.16-.1.25-.16.53-.16.82,0,.3.02.56.07.8.05.24.13.43.24.57.1.14.21.18.33.12.09-.04.15-.15.16-.34.01-.19.02-.41.01-.66,0-.26,0-.53,0-.83,0-.3.04-.58.09-.86.06-.27.16-.52.3-.75.14-.22.35-.38.62-.47.43-.15.83-.17,1.2-.05.37.12.69.32.98.62.29.29.53.65.73,1.07.2.42.34.85.44,1.3.09.45.13.89.11,1.32-.02.43-.11.8-.28,1.11-.04.07-.08.14-.13.21-.04.07-.12.08-.22.06l-1.56-.41c-.08-.02-.15-.06-.23-.11-.08-.05-.1-.14-.05-.27.03-.1.06-.23.07-.39.01-.16.02-.33.02-.5,0-.18-.02-.36-.04-.53-.02-.18-.05-.34-.09-.49-.04-.15-.09-.26-.14-.35-.06-.09-.12-.13-.2-.13-.13,0-.2.09-.23.26-.03.17-.04.38-.03.64,0,.26.02.54.03.86,0,.31-.01.61-.07.91-.05.3-.16.56-.32.81-.16.24-.39.42-.71.53-.46.17-.88.2-1.27.08-.39-.11-.72-.31-1.01-.6-.29-.29-.53-.65-.72-1.07-.19-.42-.33-.86-.4-1.31-.07-.45-.09-.9-.05-1.33.04-.43.15-.81.32-1.13Z"/>
      <path class="cls-5" d="M97.07,58.18c-.13.02-.19.09-.18.22l.25,2.2c.01.09,0,.17-.05.23-.05.06-.12.09-.21.11l-1.6.18c-.09.01-.17,0-.23-.05-.06-.05-.09-.12-.11-.21l-.52-4.6c-.01-.09,0-.17.05-.23.05-.06.12-.09.21-.11l6.4-.73c.09-.01.17,0,.23.05.06.05.09.12.11.21l.52,4.6c.01.09,0,.17-.05.23-.05.06-.12.09-.21.11l-1.6.18c-.09.01-.17,0-.23-.05-.06-.05-.09-.12-.11-.21l-.25-2.2c-.02-.13-.09-.19-.22-.18l-.3.03c-.13.02-.19.09-.18.22l.21,1.8c.01.09,0,.17,0,.22-.01.06-.07.09-.16.1l-.8.09c-.09.01-.15,0-.18-.06-.03-.05-.04-.12-.06-.22l-.21-1.8c-.02-.13-.09-.19-.22-.18l-.3.03Z"/>
    </g>
  </g>
</svg>