<?xml version="1.0" encoding="UTF-8"?>
<svg id="Layer_2" data-name="Layer 2" xmlns="http://www.w3.org/2000/svg" viewBox="0 0 189.78 67.61">
  <defs>
    <style>
      .cls-1 {
        font-family: Onest-Black, Onest;
        font-size: 26.62px;
        font-weight: 800;
      }

      .cls-1, .cls-2, .cls-3 {
        fill: #e68011;
      }

      .cls-2 {
        font-family: Onest-Regular, Onest;
        font-size: 7.36px;
      }

      .cls-4 {
        fill: #318cdd;
      }

      .cls-5, .cls-6 {
        fill: #054386;
      }

      .cls-6 {
        font-family: Onest-Bold, Onest;
        font-size: 17.25px;
        font-weight: 700;
      }

      .cls-7 {
        fill: #bf162c;
      }

      .cls-8 {
        fill: #f49a9a;
      }

      .cls-9 {
        letter-spacing: -.1em;
      }

      .cls-10 {
        letter-spacing: -.07em;
      }

      .cls-11 {
        letter-spacing: -.07em;
      }

      .cls-12 {
        letter-spacing: -.07em;
      }

      .cls-13 {
        letter-spacing: -.05em;
      }

      .cls-14 {
        letter-spacing: -.05em;
      }

      .cls-15 {
        letter-spacing: -.06em;
      }

      .cls-16 {
        letter-spacing: -.06em;
      }

      .cls-17 {
        letter-spacing: -.06em;
      }

      .cls-18 {
        letter-spacing: -.06em;
      }

      .cls-19 {
        letter-spacing: -.06em;
      }

      .cls-20 {
        letter-spacing: -.02em;
      }

      .cls-21 {
        letter-spacing: -.02em;
      }

      .cls-22 {
        letter-spacing: -.03em;
      }

      .cls-23 {
        letter-spacing: -.02em;
      }

      .cls-24 {
        letter-spacing: -.02em;
      }

      .cls-25 {
        letter-spacing: -.02em;
      }

      .cls-26 {
        letter-spacing: -.05em;
      }

      .cls-27 {
        letter-spacing: -.04em;
      }

      .cls-28 {
        letter-spacing: -.04em;
      }

      .cls-29 {
        letter-spacing: -.04em;
      }

      .cls-30 {
        letter-spacing: -.04em;
      }

      .cls-31 {
        letter-spacing: -.04em;
      }

      .cls-32 {
        letter-spacing: -.04em;
      }

      .cls-33 {
        letter-spacing: -.04em;
      }

      .cls-34 {
        letter-spacing: -.04em;
      }

      .cls-35 {
        letter-spacing: -.04em;
      }

      .cls-36 {
        letter-spacing: -.05em;
      }

      .cls-37 {
        letter-spacing: -.03em;
      }

      .cls-38 {
        letter-spacing: -.04em;
      }

      .cls-39 {
        letter-spacing: -.04em;
      }

      .cls-40 {
        letter-spacing: -.04em;
      }

      .cls-41 {
        letter-spacing: -.04em;
      }

      .cls-42 {
        letter-spacing: -.04em;
      }

      .cls-43 {
        letter-spacing: -.04em;
      }
    </style>
  </defs>
  <g id="Layer_2-2" data-name="Layer 2">
    <g>
      <g>
        <rect class="cls-3" x="38.74" y="0" width="2.33" height="10.76" rx=".1" ry=".1"/>
        <rect class="cls-3" x="62.6" y="9.9" width="2.33" height="10.76" rx=".1" ry=".1" transform="translate(27.53 -39.37) rotate(42.97)"/>
        <rect class="cls-3" x="14.86" y="10.2" width="2.33" height="10.76" rx=".1" ry=".1" transform="translate(-6.32 15.9) rotate(-45)"/>
        <rect class="cls-3" x="4.22" y="38.18" width="2.33" height="10.76" rx=".1" ry=".1" transform="translate(48.94 38.18) rotate(90)"/>
        <path class="cls-3" d="M28.22,18.9c.04.08.1.1.18.06l1.37-.66c.06-.03.11-.03.16-.02.05.02.09.05.12.11l.48,1c.03.06.03.11.02.16-.02.05-.05.09-.11.12l-2.87,1.38c-.06.03-.11.03-.16.02-.05-.02-.09-.05-.12-.11l-1.92-3.99c-.03-.06-.03-.11-.02-.16.02-.05.05-.09.11-.12l2.87-1.38c.06-.03.11-.03.16-.02.05.02.09.05.12.11l.48,1c.03.06.03.11.02.16-.02.05-.05.09-.11.12l-1.37.66c-.08.04-.1.1-.06.18l.09.19c.04.08.1.1.18.06l1.12-.54c.06-.03.11-.04.15-.05.04,0,.07.02.1.08l.24.5c.03.06.03.1,0,.13-.03.03-.07.06-.13.08l-1.12.54c-.08.04-.1.1-.06.18l.09.19Z"/>
        <path class="cls-3" d="M35.17,17.99c-.08.23-.24.38-.48.45-.35.1-.67.11-.96.04-.29-.07-.54-.2-.76-.38-.22-.19-.4-.42-.54-.69-.14-.27-.24-.57-.29-.88-.05-.31-.06-.62-.01-.94.04-.32.14-.62.29-.89.15-.27.35-.51.61-.72.26-.21.58-.35.97-.43.34-.07.66-.1.94-.07.29.02.54.09.75.19.06.03.11.06.15.09.04.04.05.09.03.16l-.32,1.06s-.03.08-.05.12c-.02.04-.06.07-.1.08-.03,0-.07,0-.12-.02-.08-.04-.16-.07-.23-.1-.07-.03-.14-.05-.21-.07-.07-.02-.15-.02-.24-.02-.08,0-.18.03-.3.07-.15.05-.27.14-.35.27-.08.13-.13.27-.14.43-.02.16,0,.32.03.48.04.16.1.3.18.43s.18.22.3.28c.12.06.24.07.38.03.1-.03.16-.08.19-.14.03-.06.03-.13.02-.2l-.1-.5c-.01-.06,0-.12.02-.16.03-.04.07-.07.14-.09l1.29-.27c.06-.01.12,0,.16.02.04.03.07.07.09.14l.42,2c.01.06,0,.12-.02.16-.03.04-.07.07-.14.09l-1.29.27c-.07.01-.11,0-.14-.05-.03-.05-.05-.12-.08-.21,0-.04-.02-.06-.04-.07-.02,0-.03,0-.05.06Z"/>
        <path class="cls-3" d="M39.59,13.23c0-.06.02-.12.05-.15.04-.04.09-.06.15-.06l1.31-.03c.06,0,.12.02.15.05.04.04.06.09.06.15l.07,2.62c0,.35-.04.65-.16.91-.12.26-.27.48-.47.66-.2.18-.42.31-.67.41-.25.09-.51.14-.78.15-.27,0-.53-.03-.79-.11-.26-.08-.49-.2-.7-.37-.21-.17-.38-.38-.5-.63-.13-.26-.2-.56-.21-.9l-.07-2.62c0-.06.02-.12.05-.15.04-.04.09-.06.15-.06l1.31-.03c.06,0,.12.02.15.05.04.04.06.09.06.15l.07,2.62c0,.18.05.31.14.4.09.09.19.13.29.13.11,0,.2-.05.28-.14.08-.09.12-.23.11-.41l-.07-2.62Z"/>
        <path class="cls-3" d="M43.75,16.47c-.01.09.03.14.12.16l1.51.22c.06,0,.11.03.14.08.03.04.04.09.03.16l-.16,1.1c0,.06-.03.11-.08.14-.04.03-.09.04-.16.03l-3.15-.45c-.06,0-.11-.03-.14-.08-.03-.04-.04-.09-.03-.16l.63-4.39c0-.06.03-.11.08-.14.04-.03.09-.04.16-.03l3.15.45c.06,0,.11.03.14.08.03.04.04.09.03.16l-.16,1.1c0,.06-.03.11-.08.14-.04.03-.09.04-.16.03l-1.51-.22c-.09-.01-.14.03-.16.12l-.03.21c-.01.09.03.14.12.16l1.23.18c.06,0,.11.02.15.04.03.02.05.06.04.12l-.08.55c0,.06-.03.1-.07.11-.04,0-.09,0-.15,0l-1.23-.18c-.09-.01-.14.03-.16.12l-.03.21Z"/>
        <path class="cls-3" d="M45.83,17.9c-.03-.05-.06-.11-.08-.16s0-.1.05-.15l.83-.74s.04-.04.07-.05c.03-.02.06-.03.08-.04.03,0,.06,0,.09,0,.03,0,.06.03.08.07.11.15.24.29.41.41.17.12.33.2.49.26.16.06.3.09.41.08.12,0,.18-.05.2-.14.01-.07-.03-.14-.13-.22-.1-.08-.23-.17-.37-.26-.15-.1-.31-.2-.48-.32-.17-.12-.32-.24-.46-.38-.14-.14-.24-.29-.31-.46-.07-.17-.08-.34-.03-.54.08-.3.22-.54.43-.7.21-.16.45-.27.73-.32.28-.05.57-.05.89,0,.31.05.62.13.91.25.29.12.56.26.79.44.24.18.41.37.53.58.03.05.05.1.07.15s0,.1-.05.15l-.83.74s-.09.07-.15.09c-.06.03-.12,0-.18-.07-.04-.06-.11-.12-.19-.19-.08-.07-.18-.14-.28-.2-.1-.07-.21-.13-.32-.18-.11-.05-.22-.1-.31-.13-.1-.03-.18-.05-.26-.05-.07,0-.12.02-.15.06-.05.07-.03.15.06.23.09.08.2.17.36.26.15.09.32.2.5.31.18.11.35.24.49.39.15.14.26.31.34.49.08.18.09.39.03.61-.08.33-.23.58-.44.76-.21.18-.45.29-.73.35-.28.05-.57.05-.89,0-.32-.05-.62-.14-.9-.27-.29-.13-.55-.29-.78-.48-.23-.19-.41-.4-.52-.62Z"/>
        <path class="cls-3" d="M55.75,17.4c.06.03.09.07.11.12.02.05,0,.1-.02.16l-.52.98c-.03.06-.07.09-.12.11-.05.02-.1,0-.16-.02l-.86-.45c-.08-.04-.14-.02-.19.06l-1.39,2.63c-.03.06-.07.09-.12.11-.05.02-.1,0-.16-.02l-1.16-.61c-.06-.03-.09-.07-.11-.12-.02-.05,0-.1.02-.16l1.39-2.63c.04-.08.02-.14-.06-.19l-.86-.45c-.06-.03-.09-.07-.11-.12-.02-.05,0-.1.02-.16l.52-.98c.03-.06.07-.09.12-.11.05-.02.1,0,.16.02l3.49,1.84Z"/>
        <path class="cls-4" d="M37.17,48.57c.12-.04.24-.08.36-.11-.12.03-.24.07-.36.11Z"/>
        <path class="cls-4" d="M39.63,48.08c.11,0,.22-.01.33-.01,0,0-.01.01-.02.01h-.31Z"/>
        <path class="cls-4" d="M42.91,48.68c.09.05.18.09.27.15-.09-.05-.18-.1-.27-.15Z"/>
        <path class="cls-8" d="M64.41,44.86s0,.09,0,.13v-.14s0,0,0,0Z"/>
        <path class="cls-5" d="M19.65,57.43c2.27-.42,4.37-.74,6.42-.93,5.38-.5,10.28-.11,16.39,1.3,3.76.87,8.19,1.75,13.23,1.17,1.39-.16,2.76-.42,4.12-.79.04-.01.08-.02.11-.03,1.32-.37,2.63-.83,3.91-1.39,3.02-1.33,6.01-3.24,8.89-5.7l-.04-.06c-2.53,1.52-5.92,2.47-10.29,2.87h-.08c-1.35.13-2.79.2-4.33.21-5.54.06-12.35-.56-20.83-1.89-7.82-1.23-14.77.16-19.47,1.69-.02,0-.05.02-.07.02-.28.09-.55.18-.82.28-5.79,2.01-9.89,4.7-11.63,6.4l-.1.09.13-.03c.77-.18,1.51-.35,2.24-.52,4.71-1.09,8.63-2,12.15-2.66.03,0,.05-.01.08-.01Z"/>
        <path class="cls-5" d="M56.14,62.3s-.08,0-.12,0h0c-.09,0-.18,0-.27,0-4.44.05-9.91-.45-16.72-1.52-5.65-.89-10.98-.11-15.36,1.27h0s-.05.02-.08.03c-4.95,1.57-8.67,3.9-10.26,5.44l-.1.09.13-.03c.61-.14,1.21-.28,1.8-.42,4.74-1.1,8.48-1.97,11.85-2.5,0,0,0,0,0,0,0,0,0,0,0,0,.03,0,.07-.01.1-.02,1.03-.16,2.03-.29,3.01-.38,4.32-.4,8.26-.09,13.16,1.04,1.89.44,4,.88,6.3,1.03.05,0,.11,0,.16.01,0,0,0,0,0,0,0,0,0,0,0,0,1.32.08,2.71.06,4.16-.1,4.83-.55,9.31-2.63,13.68-6.36l-.04-.06c-2.61,1.56-6.35,2.37-11.42,2.47Z"/>
        <path class="cls-3" d="M15.89,39.61c.11-.64.24-1.28.4-1.91-.16.63-.29,1.27-.4,1.91-.34,2.03-.43,4.04-.29,6.01-.14-1.97-.05-3.98.29-6.01ZM15.87,47.92c-.01-.07-.02-.15-.04-.22.01.07.02.15.04.22ZM15.82,47.6c-.01-.08-.02-.16-.04-.24.01.08.02.16.04.24ZM15.77,47.27c-.01-.09-.02-.17-.03-.26.01.09.02.17.03.26ZM15.73,46.94c-.01-.09-.02-.18-.03-.27.01.09.02.18.03.27ZM15.69,46.61c-.01-.1-.02-.19-.03-.29,0,.1.02.19.03.29ZM15.66,46.27c0-.1-.02-.2-.03-.3,0,.1.02.2.03.3ZM15.62,45.94c0-.1-.02-.21-.02-.31,0,.1.02.21.02.31ZM16.42,50.41s.01.04.02.06c0-.02-.01-.04-.02-.06ZM15.89,48.04c.01.07.02.13.04.2-.01-.07-.02-.13-.04-.2ZM15.95,48.39c.01.06.02.12.04.18-.01-.06-.02-.12-.04-.18ZM16.02,48.73c.01.06.02.11.03.17-.01-.06-.02-.11-.03-.17ZM16.09,49.06s.02.1.03.15c-.01-.05-.02-.1-.03-.15ZM16.17,49.4s.02.08.03.13c0-.04-.02-.08-.03-.13ZM16.25,49.74s.02.07.03.11c0-.04-.02-.07-.03-.11ZM16.33,50.07s.02.06.02.08c0-.03-.02-.06-.02-.08ZM21.23,28.16c4.53-5.38,10.92-8.48,17.81-8.74.18,0,.35-.01.53-.01-.18,0-.35,0-.53.01-6.89.26-13.28,3.36-17.81,8.74ZM58.31,27.67c-1.29-1.46-2.74-2.75-4.31-3.85,1.57,1.1,3.02,2.39,4.31,3.85.73.82,1.4,1.69,2,2.59-.6-.9-1.27-1.77-2-2.59ZM64.41,44.86v.14s0-.09,0-.13c0,0,0,0,0,0Z"/>
        <path class="cls-3" d="M63.6,50.21s-.01,0-.01,0c0,0,0,0-.02,0-.01,0-.03,0-.04,0-.06.01-.12.03-.19.04-.77.15-1.53.27-2.28.36-.12.01-.23.03-.35.04-.03,0-.06,0-.09.01-.12.01-.25.03-.37.04-.18.02-.36.03-.54.05-.22.02-.43.03-.64.05-.45.03-.9.05-1.34.07-.13,0-.26,0-.39.01-1.4.03-2.76-.01-4.07-.11-.18-.01-.37-.03-.55-.04-.12,0-.23-.02-.35-.03-.09,0-.18-.02-.27-.02-.41-.04-.81-.08-1.21-.13-.09-.01-.18-.02-.27-.03-.17-.02-.34-.04-.5-.07-.11-.01-.22-.03-.33-.04-.56-.08-1.1-.16-1.62-.25-.1-.02-.21-.03-.31-.05-.02,0-.05,0-.07-.01-.11-.02-.22-.04-.33-.06-.12-.02-.24-.04-.36-.06-.06-.01-.12-.02-.19-.03-.12-.02-.24-.04-.35-.06-.94-.18-1.83-.36-2.64-.52,0,0,0,0-.01,0-.03-.03-.06-.06-.09-.08-.01,0-.02-.02-.03-.03-.02-.02-.04-.04-.07-.06-.02-.02-.04-.03-.06-.05-.03-.02-.06-.05-.09-.07-.04-.03-.08-.06-.12-.08,0,0,0,0,0,0-.04-.03-.08-.05-.11-.08,0,0,0,0,0,0-.04-.03-.08-.05-.13-.08-.09-.05-.18-.1-.27-.15-.05-.02-.09-.05-.14-.07-.05-.02-.09-.04-.14-.06,0,0,0,0,0,0-.05-.02-.1-.04-.14-.06-.04-.01-.07-.03-.11-.04-.02,0-.04-.01-.05-.02-.05-.02-.09-.03-.14-.05-.04-.01-.08-.03-.12-.04-.11-.03-.22-.06-.33-.09-.01,0-.02-.01-.02-.02v-8.7s0-.01,0-.02c0,0,8.83-7.7,8.83-7.7v-1.5s-.01-.03-.03-.03h-3.82s.04-.04.04-.04l1.13-1c.15-.13.34-.2.53-.2h3.21s.03-.01.03-.03v-1.13s-.01-.03-.03-.03h-3.85c-.07,0-.15.03-.2.08l-2.62,2.3-.03.03-13.89-.02s-.03.01-.03.03v1.48h0s.02.02.02.02l8.93,7.85s0,.01,0,.02l.02,8.41s0,0,0,.01c0,0-.01.01-.02.01h-.31c-.24.01-.49.04-.74.08-.07,0-.14.02-.21.03-.07.01-.15.03-.22.04-.08.02-.16.03-.25.05-.05.01-.1.02-.15.03-.02,0-.05.01-.07.02-.09.02-.18.05-.28.07-.06.02-.12.03-.18.05-.12.03-.24.07-.36.11,0,0,0,0,0,0-.12.04-.23.08-.35.12,0,0-.01,0-.02,0-.06-.02-.12-.04-.19-.07-.04-.01-.07-.02-.11-.04-.2-.07-.41-.13-.63-.2-.11-.03-.22-.06-.34-.09-.3-.08-.61-.15-.94-.22-.09-.02-.18-.04-.27-.05-.58-.11-1.21-.2-1.89-.26-.1,0-.2-.02-.3-.03-.05,0-.09,0-.14-.01-.12,0-.24-.02-.37-.02-2.54-.14-5.71.11-9.56,1.13-.47.13-.95.26-1.42.4-.2.06-.39.12-.59.18-.74.24-1.48.5-2.19.77-.18.07-.36.14-.54.22-.15.06-.29.12-.44.18-.1.04-.2.08-.3.13,0,0-.02,0-.03.01-.01,0-.03,0-.03-.01,0,0,0,.02,0,.03,0,.03.01.05.02.08-.02,0-.05.02-.07.03l-.02-.07c-.65-2.22-.99-4.55-.99-6.92,0-6.55,2.55-12.71,7.18-17.34,4.63-4.63,10.79-7.18,17.34-7.18s12.71,2.55,17.34,7.18c1.14,1.14,2.17,2.39,3.07,3.73.89,1.33,1.65,2.74,2.26,4.22.61,1.48,1.08,3.01,1.39,4.58.26,1.79.5,4.19.37,5.83-.1,1.81-.39,3.58-.81,5.34Z"/>
        <path class="cls-7" d="M48.22,31.8l.04-.03h-3.28l-.03.02h0l-3.99,3.5s-.03,0-.04,0l-.73-.83,2.92-2.56s0-.04-.02-.04h-.02s.08,0,.08,0l.02-.02h-.08l.06-.05.02-.02h-9.88s.01,0,.01,0l.08.07h-.02s-.03.03-.02.04l7.37,6.48s.02,0,.03,0l7.39-6.45s0-.04-.02-.04h.07s.04-.03.04-.03h-.08l.04-.04Z"/>
        <polygon class="cls-8" points="30.98 31.83 30.99 31.83 30.98 31.82 30.98 31.83"/>
        <path class="cls-3" d="M10.45,36.77c0-.06.04-.11.08-.14.04-.03.09-.04.16-.03l1.1.16c.06,0,.11.04.14.08.03.04.04.09.03.16l-.14.96c-.01.09.03.14.12.16l2.94.43c.06,0,.11.04.14.08.03.04.04.09.03.16l-.19,1.3c0,.06-.04.11-.08.14-.04.03-.09.04-.16.03l-2.94-.43c-.09-.01-.14.03-.16.12l-.14.96c0,.06-.04.11-.08.14-.04.03-.09.04-.16.03l-1.1-.16c-.06,0-.11-.04-.14-.08-.03-.04-.04-.09-.03-.16l.58-3.9Z"/>
        <path class="cls-3" d="M15.52,35.89c.05.04.09.08.11.14.02.06.02.12,0,.18l-.42,1.31c-.02.06-.05.1-.1.11-.04,0-.09,0-.14-.04l-3.82-2.57c-.05-.04-.09-.08-.11-.14-.02-.06-.02-.12,0-.18l.53-1.65c.02-.06.06-.11.11-.15.05-.04.11-.05.17-.05l4.6.16c.06,0,.11.02.14.05.03.03.04.08.02.14l-.42,1.31c-.02.06-.06.11-.11.15-.05.04-.11.05-.17.05l-.47-.02s-.08,0-.11.03c-.03.03-.06.06-.07.1l-.19.59s-.01.08,0,.12c.01.04.04.07.07.09l.39.26ZM14.39,34.79c.03-.08,0-.13-.1-.13l-.49-.02s-.07,0-.07.02c0,.02,0,.04.05.06l.41.27c.08.05.13.03.15-.05l.05-.14Z"/>
        <path class="cls-3" d="M13.83,28.56c-.06-.03-.09-.07-.11-.12-.01-.05,0-.1.02-.16l.63-1.16c.03-.06.07-.09.12-.11.05-.01.1,0,.16.02l3.9,2.11c.06.03.09.07.11.12.01.05,0,.1-.02.16l-.59,1.1c-.03.06-.07.09-.13.11-.06.02-.12.03-.18.03h-1.58c-.05,0-.08,0-.08.02,0,.02.02.04.06.06l1.21.65c.06.03.09.07.11.12.01.05,0,.1-.02.16l-.63,1.16c-.03.06-.07.09-.12.11-.05.01-.1,0-.16-.02l-3.9-2.11c-.06-.03-.09-.07-.11-.12-.01-.05,0-.1.02-.16l.59-1.1c.03-.06.07-.09.13-.11.06-.02.12-.03.18-.03h1.58c.05,0,.08,0,.08-.02,0-.02-.02-.04-.06-.06l-1.21-.65Z"/>
        <path class="cls-3" d="M19.85,27.48c.05.04.08.09.08.14,0,.05-.01.1-.05.15l-.83,1.02c-.04.05-.09.08-.14.08-.05,0-.1-.01-.15-.05l-3.45-2.78c-.05-.04-.08-.09-.08-.14,0-.05.01-.1.05-.15l.83-1.02c.04-.05.09-.08.14-.08.05,0,.1.01.15.05l1.08.87c.07.06.14.05.19-.02l.35-.43c.06-.07.05-.14-.02-.19l-1.08-.87c-.05-.04-.08-.09-.08-.14,0-.05.01-.1.05-.15l.83-1.02c.04-.05.09-.08.14-.08.05,0,.1.01.15.05l3.45,2.78c.05.04.08.09.08.14,0,.05-.01.1-.05.15l-.83,1.02c-.04.05-.09.08-.14.08-.05,0-.1-.01-.15-.05l-1.08-.87c-.07-.06-.14-.05-.19.02l-.35.43c-.06.07-.05.14.02.19l1.08.87Z"/>
        <path class="cls-3" d="M24.02,23.26c.03.05.03.11.02.18-.02.07-.05.12-.11.16l-1.36,1.07c-.05.04-.11.06-.18.06-.07,0-.12-.02-.17-.06l-3.57-2.83s-.08-.08-.08-.12c0-.04.01-.09.06-.13l1.08-.85c.05-.04.11-.06.18-.06.07,0,.12.02.17.06l1.5,1.29c.08.06.09.04.05-.04l-.85-1.8c-.03-.06-.03-.12-.01-.18.02-.06.05-.12.1-.16l1.08-.85c.05-.04.11-.06.18-.06.07,0,.12.02.17.06l1.54,1.25c.08.06.09.04.05-.04l-.9-1.76c-.03-.05-.03-.11-.02-.18.02-.06.05-.12.11-.16l1.08-.85c.05-.04.1-.05.14-.03.04.02.07.06.1.11l1.9,4.14c.03.06.03.12.01.18-.02.06-.05.12-.1.16l-1.36,1.07c-.05.04-.11.06-.18.06-.07,0-.12-.02-.17-.06l-1.12-.98s-.03-.02-.04-.01c0,0,0,.02,0,.04l.68,1.33Z"/>
        <path class="cls-3" d="M56.81,24s-.09.07-.14.08c-.05,0-.1-.02-.15-.06l-.97-.88s-.07-.09-.08-.14c0-.05.02-.1.06-.15l2.98-3.28s.09-.07.14-.08c.05,0,.1.02.15.06l.97.88s.07.09.08.14c0,.05-.02.1-.06.15l-.93,1.02c-.06.07-.06.13,0,.2l.41.37c.07.06.13.06.2,0l.93-1.02s.09-.07.14-.08c.05,0,.1.02.15.06l.97.88s.07.09.08.14c0,.05-.02.1-.06.15l-2.98,3.28s-.09.07-.14.08c-.05,0-.1-.02-.15-.06l-.97-.88s-.07-.09-.08-.14c0-.05.02-.1.06-.15l.93-1.02c.06-.07.06-.13,0-.2l-.41-.37c-.07-.06-.13-.06-.2,0l-.93,1.02Z"/>
        <path class="cls-3" d="M60.14,28.01c-.24-.32-.4-.65-.47-.99-.07-.33-.07-.65,0-.96.07-.31.19-.59.37-.85.18-.26.4-.49.65-.68.25-.19.53-.34.83-.44.3-.1.61-.14.92-.12.31.02.62.11.92.27.3.16.57.4.82.72.24.32.4.65.47.99.07.33.07.65,0,.96-.07.31-.19.59-.37.85-.18.26-.4.49-.65.68-.25.19-.53.34-.83.44-.3.1-.61.14-.92.12-.31-.02-.62-.11-.92-.27-.3-.16-.57-.4-.82-.72ZM61.35,27.09c.09.13.21.2.36.23.14.03.29.01.44-.03.15-.05.3-.12.43-.23.14-.1.25-.22.34-.35.09-.13.14-.27.16-.42.02-.14-.02-.28-.12-.4-.09-.13-.21-.2-.36-.23-.14-.03-.29-.01-.44.03-.15.05-.3.12-.43.23-.14.1-.25.22-.34.35-.09.13-.14.27-.16.42-.02.14.02.28.12.4Z"/>
        <path class="cls-3" d="M67.02,30.31c.06-.03.11-.03.16-.02.05.02.09.05.12.11l.58,1.18c.03.06.03.11.02.16-.02.05-.05.09-.11.12l-2.35,1.16c-.31.15-.61.23-.89.24-.29,0-.55-.04-.79-.15s-.46-.25-.65-.44c-.19-.19-.34-.41-.46-.65-.12-.24-.2-.49-.23-.76-.04-.27-.02-.53.04-.79.07-.26.19-.5.36-.72.18-.22.42-.41.73-.57l2.35-1.16c.06-.03.11-.03.16-.02.05.02.09.05.12.11l.58,1.18c.03.06.03.11.02.16-.02.05-.05.09-.11.12l-2.35,1.16c-.16.08-.26.18-.31.3-.04.12-.04.23,0,.32.05.1.13.16.25.19.12.03.26.01.42-.07l2.35-1.16Z"/>
        <path class="cls-3" d="M64.22,33.98c.03-.06.06-.11.09-.15.03-.04.08-.06.15-.04l1.08.28s.05.02.08.03c.03.01.06.03.08.05.02.02.04.04.05.07,0,.03,0,.06-.01.11-.07.17-.11.36-.11.56,0,.2.01.39.05.55.04.16.09.29.16.39.07.09.15.12.23.09.06-.03.1-.11.11-.23,0-.13.01-.28,0-.46,0-.18,0-.37,0-.57,0-.21.02-.4.06-.59.04-.19.11-.36.2-.51.1-.15.24-.26.43-.33.3-.1.57-.12.82-.04.25.08.48.22.67.43.2.2.36.45.5.73.14.29.24.58.3.89.06.31.09.61.07.9-.02.3-.08.55-.19.76-.03.05-.06.1-.09.14-.03.04-.08.06-.15.04l-1.08-.28c-.05-.01-.11-.04-.16-.07-.06-.03-.07-.1-.04-.19.02-.07.04-.16.05-.27,0-.11.01-.22.01-.35,0-.12-.01-.24-.03-.37-.02-.12-.04-.23-.06-.33-.03-.1-.06-.18-.1-.24-.04-.06-.09-.09-.14-.09-.09,0-.14.06-.16.18-.02.12-.03.26-.02.44,0,.18.01.37.02.59,0,.21,0,.42-.05.63-.04.2-.11.39-.22.56-.11.17-.27.29-.49.37-.32.12-.61.13-.87.06-.26-.08-.5-.22-.69-.42-.2-.2-.36-.45-.49-.74-.13-.29-.22-.59-.28-.9-.05-.31-.06-.62-.03-.92.03-.3.1-.56.22-.77Z"/>
        <path class="cls-3" d="M66.75,40c-.09.01-.13.06-.12.15l.17,1.51c0,.06,0,.12-.04.16-.03.04-.08.06-.15.07l-1.1.13c-.06,0-.12,0-.16-.04-.04-.03-.06-.08-.07-.15l-.36-3.16c0-.06,0-.12.04-.16.03-.04.08-.06.15-.07l4.4-.5c.06,0,.12,0,.16.04.04.03.06.08.07.15l.36,3.16c0,.06,0,.12-.04.16-.03.04-.08.06-.15.07l-1.1.13c-.06,0-.12,0-.16-.04-.04-.03-.06-.08-.07-.15l-.17-1.51c-.01-.09-.06-.13-.15-.12l-.21.02c-.09.01-.13.06-.12.15l.14,1.24c0,.06,0,.12,0,.15,0,.04-.05.06-.11.07l-.55.06c-.06,0-.11,0-.12-.04-.02-.04-.03-.08-.04-.15l-.14-1.24c-.01-.09-.06-.13-.15-.12l-.21.02Z"/>
      </g>
      <g>
        <text class="cls-1" transform="translate(74.42 39.03)"><tspan class="cls-9" x="0" y="0">T</tspan><tspan class="cls-22" x="13.59" y="0">A</tspan><tspan class="cls-20" x="32.54" y="0">N</tspan><tspan class="cls-24" x="52.75" y="0">H</tspan><tspan class="cls-21" x="72.16" y="0">W</tspan><tspan class="cls-23" x="98.61" y="0">E</tspan></text>
        <text class="cls-6" transform="translate(77.22 53.61)"><tspan class="cls-15" x="0" y="0">G</tspan><tspan class="cls-16" x="11.53" y="0">U</tspan><tspan class="cls-12" x="23.19" y="0">E</tspan><tspan class="cls-11" x="32.76" y="0">S</tspan><tspan class="cls-19" x="42.98" y="0">T H</tspan><tspan class="cls-15" x="67.83" y="0">O</tspan><tspan class="cls-10" x="80.06" y="0">U</tspan><tspan class="cls-15" x="91.52" y="0">S</tspan><tspan class="cls-19" x="101.81" y="0">E</tspan></text>
        <g>
          <text class="cls-2" transform="translate(78.61 60.61)"><tspan class="cls-28" x="0" y="0">Co</tspan><tspan class="cls-36" x="9.01" y="0">m</tspan><tspan class="cls-26" x="14.69" y="0">f</tspan><tspan class="cls-28" x="17.02" y="0">o</tspan><tspan class="cls-25" x="21.12" y="0">r</tspan><tspan class="cls-18" x="23.74" y="0">t</tspan></text>
          <text class="cls-2" transform="translate(111.04 60.61)"><tspan class="cls-33" x="0" y="0">H</tspan><tspan class="cls-32" x="5.05" y="0">o</tspan><tspan class="cls-38" x="9.13" y="0">s</tspan><tspan class="cls-27" x="12.61" y="0">p</tspan><tspan class="cls-34" x="16.78" y="0">i</tspan><tspan class="cls-40" x="18.1" y="0">t</tspan><tspan class="cls-39" x="20.55" y="0">a</tspan><tspan class="cls-37" x="24.37" y="0">l</tspan><tspan class="cls-35" x="25.73" y="0">it</tspan><tspan class="cls-17" x="29.48" y="0">y</tspan></text>
          <text class="cls-2" transform="translate(147.81 60.61)"><tspan class="cls-28" x="0" y="0">Co</tspan><tspan class="cls-13" x="9.01" y="0">n</tspan><tspan class="cls-14" x="12.96" y="0">v</tspan><tspan class="cls-31" x="16.53" y="0">e</tspan><tspan class="cls-29" x="20.48" y="0">n</tspan><tspan class="cls-42" x="24.55" y="0">i</tspan><tspan class="cls-43" x="25.87" y="0">e</tspan><tspan class="cls-41" x="29.82" y="0">n</tspan><tspan class="cls-30" x="33.89" y="0">c</tspan><tspan class="cls-18" x="37.65" y="0">e</tspan></text>
        </g>
      </g>
    </g>
  </g>
</svg>